<?xml version="1.0" encoding="UTF-8"?>
<svg id="Calque_2" data-name="Calque 2" xmlns="http://www.w3.org/2000/svg" viewBox="0 0 336.19 207.75">
  <defs>
    <style>
      .cls-1 {
        fill: #b30561;
      }

      .cls-2 {
        fill: #ff88b5;
      }

      .cls-3 {
        fill: #ff006f;
      }

      .cls-4 {
        fill: #3885fc;
      }

      .cls-5 {
        fill: #cfd1d2;
      }

      .cls-6 {
        fill: #ffbd0b;
      }

      .cls-7 {
        font-family: BritannicBold, 'Britannic Bold';
        font-size: 35px;
      }

      .cls-7, .cls-8 {
        fill: #1460d0;
      }

      .cls-9 {
        fill: #fc9a0a;
      }

      .cls-10 {
        fill: #d87d07;
      }

      .cls-11 {
        fill: #ff006c;
      }

      .cls-12 {
        fill: #f7f9fa;
      }

      .cls-13 {
        fill: #85b5fa;
      }
    </style>
  </defs>
  <g id="OBJECTS">
    <g>
      <g>
        <path class="cls-9" d="m103.65,80.95s8.66-12.46,6.03-24.07c-2.63-11.61-15.96-22.58-15.96-22.58,0,0-13.33,10.97-15.96,22.58-2.63,11.61,6.03,24.07,6.03,24.07l-7.55,35.69v13.44c.75.06,1.48.15,2.2.3,1.44.29,2.81.75,4.1,1.37,2.21,1.05,4.17,2.54,5.77,4.36,2.68-7.46,8.88-13.25,16.58-15.39,1.33-.37,2.69-.63,4.1-.77.73-.07,1.46-.12,2.2-.13v-3.18l-7.55-35.69Z"/>
        <g>
          <path class="cls-11" d="m78.44,118.85h4.1v12.91c2.21,1.05,4.17,2.54,5.77,4.36,2.68-7.46,8.88-13.25,16.58-15.39v-1.88h4.1v1.1c.73-.07,1.46-.12,2.2-.13v-3.18h-34.95v13.44c.75.06,1.48.15,2.2.3v-11.54Z"/>
          <path class="cls-2" d="m78.44,118.85v11.54c1.44.29,2.81.75,4.1,1.37v-12.91h-4.1Z"/>
          <path class="cls-1" d="m104.89,118.85v1.88c1.33-.37,2.69-.63,4.1-.77v-1.1h-4.1Z"/>
          <path class="cls-10" d="m98.86,57.37c.74,8.8-1.21,18.39-1.89,21.38h1.94c1.09-2.99,4.21-12.58,3.03-21.38-1.16-8.57-6.2-17.03-8.22-20.13,2.8,3.1,9.81,11.55,11.41,20.13,1.65,8.8-2.69,18.39-4.2,21.38h1.51c1.83-2.99,7.08-12.58,5.08-21.38-1.94-8.57-10.42-17.03-13.81-20.13,0,0,0,0,0,0,1.26,3.1,4.42,11.55,5.14,20.13Z"/>
          <path class="cls-6" d="m82.31,57.37c1.61-8.58,8.61-17.03,11.41-20.13h0c-3.38,3.1-11.86,11.55-13.81,20.13-1.99,8.77,3.26,18.38,5.09,21.38h1.51c-1.51-3-5.84-12.61-4.2-21.38Z"/>
          <polygon class="cls-4" points="103.65 80.95 93.72 80.95 83.79 80.95 76.24 116.65 93.72 116.65 111.19 116.65 103.65 80.95"/>
          <polygon class="cls-13" points="85.58 83.16 78.96 114.45 82.87 114.45 89.48 83.16 85.58 83.16"/>
          <polygon class="cls-8" points="108.48 114.45 101.86 83.16 97.95 83.16 104.57 114.45 108.48 114.45"/>
        </g>
      </g>
      <g>
        <path class="cls-4" d="m241.05,51.12h0l-3.02-4.9-1.04-1.69c-.29-.47-.66-.86-1.07-1.16-.41-.3-.87-.5-1.35-.62-.64-.16-1.31-.16-1.95,0-.48.12-.94.33-1.35.62-.41.3-.78.68-1.07,1.16l-1.04,1.69-3.02,4.9h0l-14.49,23.53v42.72c.78.96,1.52,1.96,2.2,3,2.03,3.05,3.64,6.39,4.75,9.96.03.1.06.19.09.29,4.4-6.51,11.86-10.8,20.29-10.8h5.54c1.38,0,2.73.12,4.05.34v-43.31h4.75v44.61c.75.29,1.49.62,2.2.98v-47.79l-14.49-23.53Z"/>
        <g>
          <polygon class="cls-9" points="241.05 51.12 231.33 51.12 218.2 72.45 215.6 72.45 228.74 51.12 226.15 51.12 211.66 74.65 255.54 74.65 241.05 51.12"/>
          <path class="cls-9" d="m236.99,44.53l1.04,1.69-1.04-1.69c-.29-.47-.66-.86-1.07-1.16.41.3.78.68,1.07,1.16Z"/>
          <path class="cls-9" d="m231.28,43.37c-.41.3-.78.68-1.07,1.16l-1.04,1.69,1.04-1.69c.29-.47.66-.86,1.07-1.16Z"/>
          <polygon class="cls-6" points="231.32 51.12 228.74 51.12 228.74 51.12 228.74 51.12 215.6 72.45 218.2 72.45 231.33 51.12 231.32 51.12 231.32 51.12"/>
          <path class="cls-13" d="m231.32,51.12h0s3.35-5.43,3.35-5.43c.07-.11.15-.21.22-.29-.46-.49-1.04-.56-1.29-.56-.3,0-1.05.08-1.52.85l-3.35,5.43h0s2.59,0,2.59,0Z"/>
          <path class="cls-13" d="m213.86,76.85v43.52c2.03,3.05,3.64,6.39,4.75,9.96v-53.48h-4.75Z"/>
        </g>
        <path class="cls-8" d="m248.59,76.85v43.31c1.64.28,3.23.72,4.75,1.3v-44.61h-4.75Z"/>
      </g>
      <g>
        <path class="cls-9" d="m186.48,27.68v7.5h-14.64v-7.5h-20.33v7.5h-14.64v-7.5h-14.71v29.9h4.75v63.98c.75.3,1.49.64,2.2,1.02,1.71.89,3.3,1.97,4.75,3.22,1.66,1.43,3.13,3.07,4.36,4.88,4.87-16.11,19.86-27.88,37.54-27.88h5.43c2.84,0,5.62.31,8.29.89,1.62.35,3.21.8,4.75,1.35.74.26,1.48.55,2.2.85v-48.31h4.75v-29.9h-14.71Zm-15.41,66.51h-18.79v-9.4c0-5.18,4.21-9.4,9.4-9.4s9.4,4.22,9.4,9.4v9.4Z"/>
        <path class="cls-10" d="m161.67,73.2h0c-6.41,0-11.6,5.19-11.6,11.6v11.6h23.2v-11.6c0-6.41-5.19-11.6-11.6-11.6Zm9.4,20.99h-18.79v-9.4c0-5.18,4.21-9.4,9.4-9.4s9.4,4.22,9.4,9.4v9.4Z"/>
        <path class="cls-10" d="m194.23,59.79v-2.2h-65.12v6.3h60.37v39.81c1.62.35,3.21.8,4.75,1.35v-45.25Z"/>
        <rect class="cls-6" x="124.36" y="29.89" width="4.75" height="25.5"/>
        <rect class="cls-10" x="194.23" y="29.89" width="4.75" height="25.5"/>
        <path class="cls-6" d="m129.11,63.88v58.69c1.71.89,3.3,1.97,4.75,3.22v-61.91h-4.75Z"/>
      </g>
      <path class="cls-4" d="m281.08,118.59c-2.15-3.84-5.68-6.46-9.6-7.56-3.49-.99-7.34-.78-10.84.79-.71.32-1,1.18-.62,1.85l2.5,4.47c.32.57,1,.82,1.61.58,1.72-.68,3.55-.74,5.26-.26,2.04.58,3.84,1.91,4.96,3.91,1.12,2,1.32,4.23.74,6.27-.48,1.71-1.49,3.24-2.97,4.35-.52.39-.66,1.1-.35,1.67l2.5,4.47c.38.68,1.26.88,1.9.44,3.17-2.17,5.36-5.35,6.33-8.84,1.11-3.92.71-8.3-1.44-12.14Z"/>
      <path class="cls-5" d="m244.54,122.75h-5.54c-11.9,0-21.54,9.64-21.54,21.54v-2.28c0-20.03-16.24-36.27-36.27-36.27h-5.43c-20.03,0-36.27,16.24-36.27,36.27v2.42c0-11.97-9.7-21.67-21.67-21.67h-6.34c-11.97,0-21.67,9.7-21.67,21.67v3.46c0-8.25-6.68-14.93-14.93-14.93-4.12,0-7.85,1.67-10.55,4.37-2.7,2.7-4.38,6.44-4.38,10.56,0,8.25,6.69,14.93,14.93,14.93h34.19c-.33-1.12-.55-2.28-.66-3.47-.39-4.22.72-8.47,3.13-11.97.66-.96,1.75-1.53,2.91-1.53.82,0,1.62.29,2.25.81l3.94,3.28c1.34,1.12,1.66,3.07.73,4.55-.7,1.12-1.01,2.42-.89,3.76.15,1.6.92,3.06,2.16,4.1.21.18.44.32.67.47h6.43c.3-.19.59-.4.86-.65.64-.59,1.48-.92,2.36-.92.82,0,1.61.29,2.24.81l.91.75h62.27l-2.31-2.25c-1.01-.98-1.36-2.42-.93-3.76.44-1.34,1.57-2.3,2.96-2.5l7.1-1.03,3.18-6.44c.62-1.26,1.88-2.05,3.29-2.05s2.67.78,3.29,2.05l3.18,6.44,7.1,1.03c1.39.2,2.53,1.16,2.96,2.5.43,1.34.08,2.78-.93,3.76l-2.31,2.25h26.2c8.24,0,14.93-6.68,14.93-14.93v-3.59c0-11.9-9.65-21.54-21.54-21.54Zm-21.45,12.03c3.38-5.55,9.41-9,15.92-9.03,1.12,0,1.95.92,2,2,.05,1.08-.95,1.99-2,2-.39,0-.77.01-1.15.04-.19.01-.38.03-.57.05-.03,0-.24.03-.33.04-.1.02-.24.04-.26.04-.18.03-.37.07-.55.11-.33.07-.67.15-.99.24-.33.09-.65.19-.97.3-.17.06-.35.12-.52.19-.02,0-.17.07-.26.1-.09.04-.31.14-.35.16-.14.06-.27.13-.41.2-.3.15-.59.31-.88.47-.58.33-1.14.7-1.67,1.11-.04.03-.1.08-.15.12-.12.1-.23.19-.34.29-.27.24-.54.48-.79.74-.46.46-.89.95-1.3,1.45-.03.04-.06.08-.09.12-.09.12-.18.24-.26.37-.21.3-.4.6-.59.91-.58.95-1.76,1.23-2.74.72-.94-.5-1.26-1.84-.72-2.74Zm-75.49-10.47c1.31-2.06,2.85-4.01,4.57-5.74,6.21-6.26,14.78-9.81,23.59-9.83,1.12,0,1.95.92,2,2,.05,1.08-.95,2-2,2-1.2,0-2.39.07-3.58.2-.12.01-.24.03-.37.04-.05,0-.12.02-.14.02-.28.04-.56.09-.84.14-.56.1-1.11.21-1.67.34-1,.23-1.99.52-2.96.85-.47.16-.93.33-1.39.51-.06.02-.5.21-.47.19-.19.08-.39.17-.58.26-1.78.82-3.48,1.8-5.07,2.93-.25.18-.49.36-.74.54-.02.01-.06.05-.1.08-.05.04-.09.07-.14.11-.38.3-.75.61-1.12.94-.73.64-1.43,1.31-2.1,2.02-.68.71-1.32,1.46-1.93,2.24-.07.09-.23.3-.27.36-.14.2-.29.39-.43.59-.28.4-.55.81-.81,1.22-.6.94-1.75,1.24-2.74.72-.93-.49-1.28-1.85-.72-2.74Zm-82.66,16.98c2.28-3.3,5.91-5.32,9.95-5.35,1.12,0,1.95.92,2,2,.05,1.09-.95,1.99-2,2-.37,0-.75.07-1.12.07-.08.01-.16.03-.23.04-.17.03-.34.07-.51.11-.35.09-.7.19-1.05.32-.06.02-.13.05-.19.07-.15.07-.3.14-.45.22-.34.18-.68.38-1,.59-.07.05-.14.1-.21.15-.02.02-.08.06-.12.09-.08.07-.17.14-.25.21-.29.26-.57.53-.83.82-.12.14-.24.28-.36.42,0,0,0,0-.01.02-.05.08-.11.16-.17.24-.64.92-1.72,1.26-2.74.72-.91-.48-1.31-1.87-.72-2.74Zm46.54-11.55c-.66,0-1.31.04-1.97.12-.02,0-.04,0-.07,0-.16.03-.32.05-.48.08-.32.06-.63.13-.95.2-.59.15-1.17.32-1.74.53-.12.04-.24.09-.36.14-.04.02-.07.03-.1.04-.01,0-.02,0-.04.02-.26.11-.52.24-.77.36-.53.27-1.05.56-1.55.89-.26.17-.52.35-.77.53-.01.01-.11.08-.16.12-.07.06-.22.18-.24.2-.91.76-1.74,1.61-2.48,2.54-.7.87-2.1.67-2.83,0-.86-.79-.65-2.01,0-2.83,3.5-4.38,8.92-6.91,14.5-6.94,1.12,0,1.95.92,2,2,.05,1.08-.95,1.99-2,2Z"/>
      <path class="cls-5" d="m73.78,140.02c.12-.02.28-.05.06-.01-.02,0-.04,0-.06.01Z"/>
      <path class="cls-5" d="m109.53,129.87c.11-.01.08-.01,0,0h0Z"/>
      <path class="cls-6" d="m225.73,158.98c.87-.85.39-2.33-.81-2.5l-8.25-1.2-3.69-7.48c-.54-1.09-2.09-1.09-2.63,0l-3.69,7.48-8.25,1.2c-1.2.17-1.68,1.65-.81,2.5l5.97,5.82-1.41,8.22c-.21,1.2,1.05,2.11,2.13,1.55l7.38-3.88,7.38,3.88c1.08.57,2.34-.35,2.13-1.55l-1.41-8.22,5.97-5.82Z"/>
      <path class="cls-6" d="m95.68,17.82l-1.41,8.22c-.21,1.2,1.05,2.11,2.13,1.55l7.38-3.88,7.38,3.88c1.08.57,2.34-.35,2.13-1.55l-1.41-8.22,5.97-5.82c.87-.85.39-2.33-.81-2.5l-8.25-1.2-3.69-7.48c-.54-1.09-2.09-1.09-2.63,0l-3.69,7.48-8.25,1.2c-1.2.17-1.68,1.65-.81,2.5l5.97,5.82Z"/>
      <rect class="cls-4" x="169.04" y=".54" width="8.47" height="23.15" rx="2.03" ry="2.03" transform="translate(56.85 141.02) rotate(-51.91)"/>
      <path class="cls-11" d="m256.5,47.27c1.88.46,2.74.71,3.37,1.93.63,1.21.34,2.06-.37,3.87-.8,2.03-1.9,4.82-.14,8.21,1.76,3.39,4.67,4.1,6.79,4.62,1.88.46,2.74.71,3.37,1.93.38.74,1.29,1.02,2.03.64l2-1.04c.74-.38,1.02-1.29.64-2.03-1.76-3.39-4.67-4.1-6.79-4.62-1.88-.46-2.74-.71-3.37-1.93-.63-1.21-.34-2.06.37-3.86.8-2.03,1.9-4.82.14-8.21-1.76-3.39-4.67-4.1-6.8-4.62-1.88-.46-2.74-.71-3.37-1.93-.63-1.22-.34-2.07.37-3.87.8-2.04,1.9-4.83.14-8.22-.38-.74-1.29-1.02-2.03-.64l-2,1.04c-.74.38-1.02,1.29-.64,2.03.63,1.22.34,2.07-.37,3.87-.8,2.04-1.9,4.82-.14,8.22,1.76,3.39,4.67,4.1,6.79,4.62Z"/>
      <path class="cls-11" d="m56.5,118.56c-.71-1.8-1-2.65-.37-3.87.63-1.22,1.49-1.47,3.37-1.93,2.13-.52,5.04-1.23,6.8-4.62,1.76-3.39.66-6.18-.14-8.21-.71-1.8-1-2.65-.37-3.86.63-1.22,1.49-1.47,3.37-1.93,2.13-.52,5.04-1.23,6.79-4.62.38-.74.09-1.64-.64-2.03l-2-1.04c-.74-.38-1.64-.09-2.03.64-.63,1.22-1.49,1.47-3.37,1.93-2.13.52-5.04,1.23-6.79,4.62-1.76,3.39-.66,6.17.14,8.21.71,1.8,1,2.65.37,3.87-.63,1.22-1.49,1.47-3.37,1.93-2.13.52-5.04,1.23-6.79,4.62-1.76,3.39-.66,6.18.14,8.22.71,1.81,1,2.65.37,3.87-.38.74-.09,1.64.64,2.03l2,1.04c.74.38,1.64.09,2.03-.64,1.76-3.39.66-6.18-.14-8.22Z"/>
      <path class="cls-6" d="m117.29,98.67c-2.29,0-4.14,1.85-4.14,4.14s1.85,4.14,4.14,4.14,4.14-1.85,4.14-4.14-1.85-4.14-4.14-4.14Z"/>
      <path class="cls-3" d="m212.04,52.12c2.29,0,4.14-1.85,4.14-4.14s-1.85-4.14-4.14-4.14-4.14,1.85-4.14,4.14,1.85,4.14,4.14,4.14Z"/>
      <path class="cls-4" d="m132.07,163.79c-1.36,1.25-3.05,1.96-4.82,2.13-2.12.19-4.27-.41-6.03-1.88-1.76-1.47-2.74-3.48-2.94-5.59-.16-1.77.23-3.56,1.22-5.13.34-.55.22-1.27-.27-1.68l-3.94-3.28c-.6-.5-1.49-.37-1.94.27-2.18,3.16-3.09,6.91-2.75,10.52.37,4.06,2.31,8.01,5.69,10.82,3.38,2.81,7.61,4,11.67,3.63,3.61-.33,7.13-1.89,9.84-4.61.55-.55.51-1.46-.08-1.95l-3.94-3.28c-.5-.42-1.23-.4-1.71.03Z"/>
      <path class="cls-12" d="m223.8,137.52c.97.51,2.15.24,2.74-.72.19-.31.38-.61.59-.91.09-.12.17-.25.26-.37.03-.04.06-.08.09-.12.41-.51.84-.99,1.3-1.45.26-.25.52-.5.79-.74.11-.1.23-.2.34-.29.05-.04.11-.09.15-.12.53-.4,1.09-.77,1.67-1.11.29-.17.58-.33.88-.47.14-.07.27-.13.41-.2.04-.02.26-.12.35-.16.09-.04.24-.1.26-.1.17-.07.34-.13.52-.19.32-.11.64-.21.97-.3.33-.09.66-.17.99-.24.18-.04.37-.07.55-.11.02,0,.16-.03.26-.04.09-.01.3-.04.33-.04.19-.02.38-.04.57-.05.38-.03.77-.04,1.15-.04,1.05,0,2.05-.92,2-2-.05-1.08-.88-2.01-2-2-6.5.04-12.54,3.48-15.92,9.03-.54.89-.23,2.24.72,2.74Z"/>
      <path class="cls-12" d="m148.31,127.05c.99.52,2.14.23,2.74-.72.26-.41.53-.82.81-1.22.14-.2.28-.4.43-.59.05-.06.21-.27.27-.36.61-.77,1.25-1.52,1.93-2.24.67-.71,1.37-1.38,2.1-2.02.37-.32.74-.63,1.12-.94.05-.04.09-.08.14-.11.04-.03.08-.06.1-.08.24-.18.49-.36.74-.54,1.59-1.13,3.29-2.12,5.07-2.93.19-.09.39-.17.58-.26-.03.01.41-.17.47-.19.46-.18.92-.35,1.39-.51.97-.33,1.96-.62,2.96-.85.55-.13,1.11-.24,1.67-.34.28-.05.56-.09.84-.14.03,0,.09-.01.14-.02.12-.02.24-.03.37-.04,1.19-.14,2.38-.2,3.58-.2,1.05,0,2.05-.92,2-2-.05-1.08-.88-2-2-2-8.81.03-17.38,3.58-23.59,9.83-1.72,1.74-3.26,3.68-4.57,5.74-.56.88-.21,2.25.72,2.74Z"/>
      <path class="cls-12" d="m111.47,125.75c-5.58.03-11,2.56-14.5,6.94-.65.82-.86,2.04,0,2.83.73.67,2.13.87,2.83,0,.74-.93,1.57-1.78,2.48-2.54.02-.02.18-.14.24-.2.06-.04.15-.11.16-.12.25-.18.51-.36.77-.53.5-.32,1.02-.62,1.55-.89.25-.13.51-.25.77-.36.02,0,.03-.01.04-.02.03-.01.05-.02.1-.04.12-.05.24-.09.36-.14.57-.21,1.15-.39,1.74-.53.31-.08.63-.15.95-.2.16-.03.32-.06.48-.08.02,0,.04,0,.07,0,.65-.08,1.31-.11,1.97-.12,1.05,0,2.05-.92,2-2-.05-1.08-.88-2.01-2-2Zm-1.95,4.11c.08-.01.11-.01,0,0h0Z"/>
      <path class="cls-12" d="m65.65,144.04c1.02.54,2.1.2,2.74-.72.05-.08.11-.16.17-.24,0,0,0,0,.01-.02.12-.14.24-.28.36-.42.26-.29.54-.56.83-.82.08-.07.16-.14.25-.21.04-.03.09-.07.12-.09.07-.05.14-.1.21-.15.32-.22.65-.42,1-.59.15-.08.3-.14.45-.22.06-.03.13-.05.19-.07.34-.13.69-.23,1.05-.32.17-.04.34-.08.51-.11.08-.01.16-.03.23-.04.37,0,.75-.06,1.12-.07,1.05,0,2.05-.91,2-2-.05-1.08-.88-2.01-2-2-4.03.03-7.67,2.05-9.95,5.35-.6.86-.19,2.26.72,2.74Zm8.13-4.02s.04,0,.06-.01c.22-.04.06,0-.06.01Z"/>
    </g>
  </g>
  <g id="TEXTS">
    <text class="cls-7" transform="translate(0 199)"><tspan x="0" y="0">Le Jardin Des Enfants</tspan></text>
  </g>
</svg>